<svg width="318" height="82" viewBox="0 0 318 82" fill="none" xmlns="http://www.w3.org/2000/svg">
<path d="M0.789062 77.7038V60.1193H6.79233C8.1931 60.1193 9.33539 60.5195 10.2192 61.3199C11.103 62.1203 11.5449 63.1959 11.5449 64.5467C11.5449 66.3476 10.8029 67.6233 9.31871 68.3738V68.4238C10.2192 68.6739 10.9363 69.1992 11.4699 69.9996C12.0035 70.8001 12.2703 71.7256 12.2703 72.7762C12.2703 74.2936 11.77 75.4943 10.7695 76.3781C9.76896 77.2619 8.50994 77.7038 6.99244 77.7038H0.789062ZM2.515 67.7484H6.79233C7.67615 67.7484 8.39321 67.4649 8.94351 66.898C9.49381 66.331 9.76896 65.5889 9.76896 64.6717C9.76896 63.7712 9.49381 63.0458 8.94351 62.4956C8.40988 61.9453 7.67615 61.6701 6.74231 61.6701H2.515V67.7484ZM2.515 76.153H7.01746C8.08471 76.153 8.92683 75.8445 9.54383 75.2275C10.1608 74.6105 10.4693 73.7767 10.4693 72.7261C10.4693 71.6756 10.1442 70.8334 9.49381 70.1997C8.86013 69.5661 8.02634 69.2492 6.99244 69.2492H2.515V76.153Z" fill="#EF2D24"/>
<path d="M16.2027 77.7038V60.1193H17.9287V72.7762L17.7786 75.1524H17.8286C18.4456 74.1186 18.9542 73.3098 19.3545 72.7261L28.2593 60.1193H29.9352V77.7038H28.2093V65.0469L28.3594 62.6706H28.3093C27.7257 63.6712 27.2337 64.4633 26.8335 65.0469L17.8787 77.7038H16.2027Z" fill="#EF2D24"/>
<path d="M34.9874 77.7038V60.1193H41.0657C42.6499 60.1193 43.9506 60.6029 44.9678 61.57C45.9851 62.5372 46.4937 63.8213 46.4937 65.4221C46.4937 67.0397 45.9851 68.3404 44.9678 69.3243C43.9506 70.3081 42.6499 70.8001 41.0657 70.8001H36.7133V77.7038H34.9874ZM36.7133 69.2492H40.8406C42.0246 69.2492 42.9667 68.9074 43.6671 68.2237C44.3675 67.54 44.7177 66.6061 44.7177 65.4221C44.7177 64.2548 44.3675 63.3377 43.6671 62.6706C42.9834 62.0036 42.0496 61.6701 40.8656 61.6701H36.7133V69.2492Z" fill="#EF2D24"/>
<path d="M48.7124 68.774C48.7124 66.2726 49.5796 64.1548 51.3139 62.4205C53.0481 60.6862 55.166 59.8191 57.6673 59.8191C60.1687 59.8191 62.2865 60.6862 64.0208 62.4205C65.7551 64.1381 66.6222 66.2559 66.6222 68.774C66.6222 71.3587 65.7551 73.5432 64.0208 75.3275C62.2865 77.1119 60.1687 78.004 57.6673 78.004C55.166 78.004 53.0481 77.1119 51.3139 75.3275C49.5796 73.5432 48.7124 71.3587 48.7124 68.774ZM50.5134 68.774C50.5134 70.9085 51.2055 72.7094 52.5896 74.1769C53.9903 75.6444 55.6829 76.3781 57.6673 76.3781C59.6684 76.3781 61.361 75.6444 62.7451 74.1769C64.1292 72.7094 64.8212 70.9085 64.8212 68.774C64.8212 66.7062 64.1292 64.9719 62.7451 63.5711C61.361 62.1537 59.6684 61.445 57.6673 61.445C55.6829 61.445 53.9903 62.1537 52.5896 63.5711C51.2055 64.9719 50.5134 66.7062 50.5134 68.774Z" fill="#EF2D24"/>
<path d="M70.5292 77.7038V60.1193H72.2552V76.153H79.5591V60.1193H81.2851V76.153H88.5891V60.1193H90.34V76.153H92.4912V81.2057H90.8653V77.7038H70.5292Z" fill="#EF2D24"/>
<path d="M95.5567 76.9284L96.3822 75.6027C97.1826 76.1697 97.8663 76.4532 98.4333 76.4532C98.9669 76.4532 99.3838 76.2614 99.684 75.8778C100.001 75.4943 100.318 74.894 100.634 74.0769L93.6557 60.1193H95.5817L100.409 69.9246L101.41 72.2259H101.46C101.727 71.4087 101.985 70.65 102.235 69.9496L105.887 60.1193H107.738L101.985 74.9273C101.185 76.9784 100.009 78.004 98.4583 78.004C97.5411 78.004 96.5739 77.6455 95.5567 76.9284Z" fill="#EF2D24"/>
<path d="M109.122 68.799C109.122 66.2476 109.956 64.1131 111.623 62.3955C113.291 60.6779 115.4 59.8191 117.952 59.8191C118.736 59.8191 119.486 59.9025 120.203 60.0692C120.937 60.2193 121.537 60.4027 122.004 60.6195C122.488 60.8363 122.904 61.0614 123.255 61.2949C123.621 61.5117 123.888 61.6951 124.055 61.8452L124.305 62.0953L123.38 63.371C123.33 63.321 123.246 63.2543 123.13 63.1709C123.03 63.0709 122.796 62.9124 122.429 62.6957C122.079 62.4622 121.704 62.2621 121.304 62.0953C120.92 61.9286 120.428 61.7785 119.828 61.6451C119.227 61.495 118.619 61.42 118.002 61.42C116.067 61.42 114.441 62.062 113.124 63.346C111.823 64.6134 111.106 66.2142 110.973 68.1486H120.878V69.6494H110.973C111.14 71.6005 111.873 73.2181 113.174 74.5021C114.492 75.7695 116.126 76.4031 118.077 76.4031C118.744 76.4031 119.394 76.3281 120.028 76.178C120.662 76.0112 121.195 75.8195 121.629 75.6027C122.062 75.3692 122.446 75.1358 122.779 74.9023C123.13 74.6688 123.388 74.4687 123.555 74.302L123.805 74.0769L124.755 75.3025C124.689 75.3692 124.589 75.4693 124.455 75.6027C124.339 75.7194 124.063 75.9362 123.63 76.253C123.213 76.5532 122.763 76.8284 122.279 77.0785C121.796 77.312 121.17 77.5204 120.403 77.7038C119.636 77.9039 118.844 78.004 118.027 78.004C115.459 78.004 113.333 77.1202 111.648 75.3526C109.964 73.5849 109.122 71.4004 109.122 68.799Z" fill="#EF2D24"/>
<path d="M127.527 77.7038L128.928 60.1193H130.704L135.331 70.4499L136.182 72.6011H136.232C136.532 71.7673 136.815 71.0502 137.082 70.4499L141.71 60.1193H143.486L144.886 77.7038H143.16L142.185 65.3971L142.135 62.9458H142.085C141.735 63.9797 141.426 64.7968 141.159 65.3971L137.007 74.4271H135.406L131.279 65.3971L130.328 62.8958H130.278C130.295 63.9297 130.278 64.7635 130.228 65.3971L129.253 77.7038H127.527Z" fill="#EF2D24"/>
<path d="M148.083 68.774C148.083 66.2726 148.95 64.1548 150.684 62.4205C152.419 60.6862 154.537 59.8191 157.038 59.8191C159.539 59.8191 161.657 60.6862 163.391 62.4205C165.126 64.1381 165.993 66.2559 165.993 68.774C165.993 71.3587 165.126 73.5432 163.391 75.3275C161.657 77.1119 159.539 78.004 157.038 78.004C154.537 78.004 152.419 77.1119 150.684 75.3275C148.95 73.5432 148.083 71.3587 148.083 68.774ZM149.884 68.774C149.884 70.9085 150.576 72.7094 151.96 74.1769C153.361 75.6444 155.053 76.3781 157.038 76.3781C159.039 76.3781 160.732 75.6444 162.116 74.1769C163.5 72.7094 164.192 70.9085 164.192 68.774C164.192 66.7062 163.5 64.9719 162.116 63.5711C160.732 62.1537 159.039 61.445 157.038 61.445C155.053 61.445 153.361 62.1537 151.96 63.5711C150.576 64.9719 149.884 66.7062 149.884 68.774Z" fill="#EF2D24"/>
<path d="M176.153 77.7038V60.1193H182.231C183.816 60.1193 185.116 60.6029 186.134 61.57C187.151 62.5372 187.659 63.8213 187.659 65.4221C187.659 67.0397 187.151 68.3404 186.134 69.3243C185.116 70.3081 183.816 70.8001 182.231 70.8001H177.879V77.7038H176.153ZM177.879 69.2492H182.006C183.19 69.2492 184.133 68.9074 184.833 68.2237C185.533 67.54 185.883 66.6061 185.883 65.4221C185.883 64.2548 185.533 63.3377 184.833 62.6706C184.149 62.0036 183.215 61.6701 182.031 61.6701H177.879V69.2492Z" fill="#EF2D24"/>
<path d="M188.076 77.7038L194.529 60.1193H196.38L202.834 77.7038H201.008L198.982 72.1008H191.903L189.902 77.7038H188.076ZM192.428 70.6H198.456L196.155 64.2215L195.48 61.9202H195.43C195.18 62.9041 194.954 63.6712 194.754 64.2215L192.428 70.6Z" fill="#EF2D24"/>
<path d="M204.155 75.7278L205.181 74.4771C205.681 75.0441 206.315 75.511 207.082 75.8778C207.849 76.228 208.641 76.4031 209.458 76.4031C210.676 76.4031 211.676 76.0696 212.46 75.4026C213.244 74.7356 213.636 73.8434 213.636 72.7261C213.636 71.6756 213.277 70.8501 212.56 70.2498C211.86 69.6494 210.976 69.3493 209.908 69.3493H207.682V67.8485H209.458C210.459 67.8485 211.309 67.5483 212.01 66.948C212.71 66.331 213.06 65.5472 213.06 64.5967C213.06 63.6795 212.768 62.9208 212.185 62.3205C211.601 61.7035 210.717 61.395 209.533 61.395C208.032 61.395 206.682 61.8952 205.481 62.8958L204.681 61.545C206.081 60.3944 207.757 59.8191 209.708 59.8191C211.293 59.8191 212.543 60.236 213.46 61.0698C214.378 61.9036 214.836 63.0208 214.836 64.4216C214.836 66.2559 213.961 67.5817 212.21 68.3988V68.4488C213.194 68.7156 213.977 69.2326 214.561 69.9996C215.145 70.75 215.437 71.6756 215.437 72.7762C215.437 74.3437 214.878 75.611 213.761 76.5782C212.643 77.5287 211.234 78.004 209.533 78.004C208.516 78.004 207.516 77.8039 206.532 77.4037C205.564 77.0035 204.772 76.4448 204.155 75.7278Z" fill="#EF2D24"/>
<path d="M218.165 68.774C218.165 66.2726 219.032 64.1548 220.767 62.4205C222.501 60.6862 224.619 59.8191 227.12 59.8191C229.621 59.8191 231.739 60.6862 233.473 62.4205C235.208 64.1381 236.075 66.2559 236.075 68.774C236.075 71.3587 235.208 73.5432 233.473 75.3275C231.739 77.1119 229.621 78.004 227.12 78.004C224.619 78.004 222.501 77.1119 220.767 75.3275C219.032 73.5432 218.165 71.3587 218.165 68.774ZM219.966 68.774C219.966 70.9085 220.658 72.7094 222.042 74.1769C223.443 75.6444 225.136 76.3781 227.12 76.3781C229.121 76.3781 230.814 75.6444 232.198 74.1769C233.582 72.7094 234.274 70.9085 234.274 68.774C234.274 66.7062 233.582 64.9719 232.198 63.5711C230.814 62.1537 229.121 61.445 227.12 61.445C225.136 61.445 223.443 62.1537 222.042 63.5711C220.658 64.9719 219.966 66.7062 219.966 68.774Z" fill="#EF2D24"/>
<path d="M239.307 77.7038L240.707 60.1193H242.483L247.111 70.4499L247.961 72.6011H248.011C248.311 71.7673 248.595 71.0502 248.862 70.4499L253.489 60.1193H255.265L256.666 77.7038H254.94L253.965 65.3971L253.915 62.9458H253.865C253.514 63.9797 253.206 64.7968 252.939 65.3971L248.787 74.4271H247.186L243.059 65.3971L242.108 62.8958H242.058C242.075 63.9297 242.058 64.7635 242.008 65.3971L241.033 77.7038H239.307Z" fill="#EF2D24"/>
<path d="M308.579 25.3897C306.421 24.8501 304.37 24.5263 302.644 24.6343C304.37 24.3105 306.313 23.5551 308.255 22.5839C313.543 19.7781 316.673 15.5694 315.27 13.1953C313.867 10.8212 308.579 11.1449 303.291 13.9507C301.78 14.814 300.27 16.109 299.191 17.1881C299.946 15.8932 300.701 14.0586 301.133 12.4399C302.752 6.82831 301.888 1.75631 299.191 1.00091C296.493 0.245504 292.931 4.13044 291.313 9.74201C290.773 11.5766 290.449 13.3032 290.449 14.9219C290.018 13.3032 289.37 11.6845 288.399 9.95784C285.485 4.88584 281.169 1.86423 278.687 3.1592C276.205 4.45418 276.528 9.6341 279.442 14.7061C280.413 16.4327 281.6 17.9435 282.895 19.1306C281.492 18.2673 279.658 17.5119 277.715 16.9723C271.996 15.3536 266.6 16.2169 265.845 18.8069C265.089 21.3968 269.082 24.8501 274.91 26.4688C276.636 26.9005 278.363 27.2242 279.874 27.2242C278.363 27.6559 276.744 28.1954 275.233 29.0588C269.946 31.8646 266.816 36.0732 268.219 38.4474C269.622 40.8215 274.91 40.4977 280.198 37.692C282.248 36.6128 283.975 35.3178 285.27 33.9149C284.19 35.4257 283.219 37.3682 282.572 39.6344C280.953 45.246 281.816 50.318 284.514 51.0734C287.212 51.8288 290.773 47.9439 292.392 42.3323C292.716 41.1452 292.931 39.9582 293.147 38.7711V38.879C293.795 44.2748 294.55 56.5771 282.787 65.8577C288.399 57.2245 280.953 54.3108 280.953 54.3108C274.37 50.7496 269.406 46.8647 269.406 46.8647C270.485 49.3468 270.269 59.9224 270.269 59.9224C271.348 69.4189 279.874 67.8002 281.6 67.1527C277.176 70.4981 271.241 73.088 263.363 74.4909L266.6 75.5701C273.723 74.1672 279.118 71.4693 283.219 68.1239C283.111 69.4189 282.68 78.0521 293.039 76.2176C293.039 76.2176 303.615 72.3326 306.421 72.6564C306.421 72.6564 302.968 69.4189 296.277 64.3469C296.277 64.3469 292.176 60.3541 285.377 66.2894C285.054 66.6131 284.622 66.9369 284.298 67.3685C284.73 66.9369 285.054 66.6131 285.377 66.2894C294.658 57.1166 294.766 45.0302 294.334 40.0661V39.9582C294.658 40.6057 294.982 41.2531 295.306 41.9006C298.219 46.9726 302.536 49.9942 305.018 48.6993C307.5 47.4043 307.176 42.2244 304.263 37.1524C303.291 35.5337 302.32 34.1308 301.241 33.0516C302.644 33.807 304.263 34.5624 306.097 34.9941C311.817 36.6128 317.212 35.7495 317.968 33.1595C318.399 30.4617 314.407 27.0084 308.579 25.3897ZM299.083 28.3034C297.896 32.2962 293.579 34.5624 289.478 33.4833C285.377 32.2962 283.003 28.1954 284.19 24.2026C285.377 20.2097 289.694 17.9435 293.795 19.0227C297.896 20.2097 300.27 24.3105 299.083 28.3034Z" fill="#EF2D24"/>
<path d="M2.59521 51.913V15.7095H21.5982V18.9024H6.14862V32.498H19.4353V35.691H6.14862V51.913H2.59521Z" fill="#EF2D24"/>
<path d="M28.6463 51.913V15.7095H48.9883V18.9024H32.1997V32.086H45.9498V35.279H32.1997V48.7201H49.9667V51.913H28.6463Z" fill="#EF2D24"/>
<path d="M57.4634 51.913V15.7095H68.4326C71.3165 15.7095 73.531 16.0528 75.0759 16.7394C78.6465 18.4561 80.4318 21.4773 80.4318 25.8032C80.4318 28.2408 79.7966 30.3694 78.5263 32.189C77.256 34.0087 75.5909 35.2103 73.531 35.794V35.8969C73.8056 36.2059 74.1318 36.6866 74.5094 37.3389L82.3887 51.913H78.2689L70.1321 36.6694H61.0168V51.913H57.4634ZM61.0168 33.4765H69.6171C71.78 33.4765 73.5138 32.7899 74.8184 31.4166C76.1231 30.0089 76.7754 28.1722 76.7754 25.9062C76.7754 24.4642 76.4321 23.1939 75.7454 22.0953C75.0931 20.9623 74.1661 20.1212 72.9645 19.5719C71.9688 19.1256 70.3896 18.9024 68.2266 18.9024H61.0168V33.4765Z" fill="#EF2D24"/>
<path d="M97.4469 51.913V18.9024H84.4692V15.7095H114.029V18.9024H101V51.913H97.4469Z" fill="#EF2D24"/>
<path d="M115.897 33.5795C115.897 28.2923 117.597 23.8978 120.995 20.3959C124.429 16.8596 128.789 15.0915 134.076 15.0915C139.535 15.0915 143.895 16.6536 147.157 19.7779L145.251 22.4043C143.844 21.1683 142.144 20.207 140.153 19.5204C138.162 18.7994 136.17 18.4389 134.179 18.4389C129.853 18.4389 126.334 19.8809 123.622 22.7648C120.944 25.6144 119.605 29.2021 119.605 33.528C119.605 37.9226 120.961 41.6305 123.673 44.6517C126.386 47.673 129.939 49.1836 134.334 49.1836C138.865 49.1836 142.762 47.5871 146.024 44.3942L148.084 46.9177C144.273 50.6599 139.655 52.531 134.231 52.531C128.806 52.531 124.394 50.7286 120.995 47.1237C117.597 43.4844 115.897 38.9697 115.897 33.5795Z" fill="#EF2D24"/>
<path d="M155.23 51.913V15.7095H158.784V32.189H179.744V15.7095H183.349V51.913H179.744V35.382H158.784V51.913H155.23Z" fill="#EF2D24"/>
<path d="M193.703 51.913V15.7095H214.045V18.9024H197.257V32.086H211.007V35.279H197.257V48.7201H215.024V51.913H193.703Z" fill="#EF2D24"/>
<path d="M221.13 51.913L224.014 15.7095H227.67L237.198 36.9784L238.949 41.4073H239.052C239.67 39.6907 240.253 38.2144 240.803 36.9784L250.33 15.7095H253.986L256.87 51.913H253.317L251.308 26.5757L251.205 21.5288H251.102C250.381 23.6574 249.746 25.3397 249.197 26.5757L240.648 45.1667H237.352L228.855 26.5757L226.898 21.4258H226.795C226.829 23.5544 226.795 25.2711 226.692 26.5757L224.684 51.913H221.13Z" fill="#EF2D24"/>
</svg>
